# xmcd CD database file
#
# Track frame offsets:
#	183
#	24168
#	42930
#	68613
#	92263
#	104790
#	120495
#	143913
#	162620
#	179055
#
# Disc length: 2815 seconds
#
# Revision: 0
# Processed by: cddbd v1.5.1PL2 Copyright (c) Steve Scherf et al.
# Submitted via: CDex 1.51
#
DISCID=840afd0a
DTITLE=Adam Makowicz - Winter Flowers
DYEAR=1993
DGENRE=Jazz
TTITLE0=Blue Cobea
TTITLE1=Dancing On The Toes
TTITLE2=First Flight To The Clouds
TTITLE3=My Scandinavian Dance
TTITLE4=Blues No.1
TTITLE5=Melody For Jan
TTITLE6=Do You Dig Debussy?
TTITLE7=A Stroll Through The Streets Of Warsaw
TTITLE8=Light Ray
TTITLE9=Winter Flowers
EXTD=YEAR: 1993
EXTT0=
EXTT1=
EXTT2=
EXTT3=
EXTT4=
EXTT5=
EXTT6=
EXTT7=
EXTT8=
EXTT9=
PLAYORDER=
